<svg xmlns="http://www.w3.org/2000/svg"
 xmlns:xlink="http://www.w3.org/1999/xlink"
 width="44px" height="44px"  viewBox="0 0 44 44">
<path fill-rule="evenodd"  fill="#707070"
 d="M22.499939,1.9956055 C33.821777,1.9956055 43.0,11.173828 43.0,22.496582 C43.0,33.817383 33.821777,42.995117 22.499939,42.995117 C11.17807,42.995117 1.9999084,33.817383 1.9999084,22.496582 C1.9999084,11.173828 11.17807,1.9956055 22.499939,1.9956055 ZM30.48999,13.102539 C30.48999,13.102539 11.017517,20.84375 11.017517,20.84375 C9.688629,21.394043 9.696045,22.158203 10.773529,22.499023 C10.773529,22.499023 15.773071,24.106445 15.773071,24.106445 C15.773071,24.106445 27.339966,16.583496 27.339966,16.583496 C27.887024,16.239258 28.38678,16.424805 27.976074,16.800781 C27.976074,16.800781 18.604126,25.519043 18.604126,25.519043 C18.604126,25.519043 18.60199,25.519043 18.60199,25.519043 C18.60199,25.519043 18.604126,25.520996 18.604126,25.520996 C18.604126,25.520996 18.259338,30.833496 18.259338,30.833496 C18.764465,30.833496 18.98761,30.594727 19.27124,30.311523 C19.27124,30.311523 21.699402,27.878906 21.699402,27.878906 C21.699402,27.878906 26.750183,31.724121 26.750183,31.724121 C27.68103,32.25293 28.350403,31.97998 28.582031,30.834473 C28.582031,30.834473 31.898376,14.725586 31.898376,14.725586 C32.237244,13.323242 31.37915,12.688477 30.48999,13.102539 Z"/>
</svg>