<svg xmlns="http://www.w3.org/2000/svg"
 xmlns:xlink="http://www.w3.org/1999/xlink"
 width="44px" height="44px"  viewBox="0 0 44 44">
<path fill-rule="evenodd"  fill="#c1363d"
 d="M22.5,1.9956055 C33.821747,1.9956055 42.99991,11.173828 42.99991,22.496582 C42.99991,33.817383 33.821747,42.995117 22.5,42.995117 C11.178131,42.995117 1.9999695,33.817383 1.9999695,22.496582 C1.9999695,11.173828 11.178131,1.9956055 22.5,1.9956055 ZM31.648743,30.773438 C31.522858,31.299805 31.261932,31.74121 30.865845,32.097656 C30.46991,32.455566 30.011322,32.66162 29.48938,32.714844 C27.83432,32.901367 25.337555,32.995605 22.0,32.995605 C18.662445,32.995605 16.165802,32.901367 14.510315,32.714844 C13.988586,32.66162 13.527496,32.455566 13.127167,32.097656 C12.726868,31.74121 12.468109,31.299805 12.351044,30.773438 C12.117126,29.77295 12.000153,28.209473 12.000153,26.085938 C12.000153,23.996582 12.117126,22.433105 12.351044,21.39746 C12.477051,20.871094 12.737976,20.42871 13.13382,20.071777 C13.529785,19.714355 13.993164,19.504883 14.523682,19.442383 C16.170044,19.263672 18.66211,19.174316 21.999878,19.174316 C25.33789,19.174316 27.83432,19.263672 29.48938,19.442383 C30.011322,19.504883 30.472412,19.714355 30.872955,20.071777 C31.273163,20.42871 31.531921,20.870117 31.648743,21.39746 C31.882446,22.39795 31.999512,23.96045 31.999756,26.085938 C31.999756,28.174316 31.882568,29.737793 31.648743,30.773438 ZM17.708801,21.49121 C17.708801,21.49121 13.498413,21.49121 13.498413,21.49121 C13.498413,21.49121 13.498413,22.751465 13.498413,22.751465 C13.498413,22.751465 14.915527,22.751465 14.915527,22.751465 C14.915527,22.751465 14.915527,30.370605 14.915527,30.370605 C14.915527,30.370605 16.264923,30.370605 16.264923,30.370605 C16.264923,30.370605 16.264923,22.751465 16.264923,22.751465 C16.264923,22.751465 17.708801,22.751465 17.708801,22.751465 C17.708801,22.751465 17.708801,21.49121 17.708801,21.49121 ZM21.352264,23.755371 C21.352264,23.755371 20.151215,23.755371 20.151215,23.755371 C20.151215,23.755371 20.151215,28.817383 20.151215,28.817383 C19.88147,29.191895 19.624908,29.379883 19.38205,29.379883 C19.220001,29.379883 19.125702,29.286133 19.098572,29.099121 C19.089539,29.072266 19.085083,28.916016 19.085083,28.63086 C19.085083,28.63086 19.085083,23.755371 19.085083,23.755371 C19.085083,23.755371 17.884033,23.755371 17.884033,23.755371 C17.884033,23.755371 17.884033,28.990723 17.884033,28.990723 C17.884033,29.42871 17.920197,29.754883 17.992065,29.96875 C18.099854,30.299316 18.3609,30.464355 18.77472,30.464355 C19.206512,30.464355 19.665405,30.192871 20.151215,29.646973 C20.151215,29.646973 20.151215,30.370605 20.151215,30.370605 C20.151215,30.370605 21.352264,30.370605 21.352264,30.370605 C21.352264,30.370605 21.352264,23.755371 21.352264,23.755371 ZM25.94043,25.75 C25.94043,25.099121 25.899933,24.657715 25.819244,24.424316 C25.666138,23.925293 25.346954,23.674805 24.861023,23.674805 C24.411041,23.674805 23.993103,23.916016 23.605835,24.398438 C23.605835,24.398438 23.605835,21.49121 23.605835,21.49121 C23.605835,21.49121 22.40503,21.49121 22.40503,21.49121 C22.40503,21.49121 22.40503,30.370605 22.40503,30.370605 C22.40503,30.370605 23.605835,30.370605 23.605835,30.370605 C23.605835,30.370605 23.605835,29.728516 23.605835,29.728516 C24.010864,30.219727 24.429352,30.464355 24.861023,30.464355 C25.346954,30.464355 25.666138,30.219727 25.819244,29.728516 C25.899933,29.487305 25.94043,29.040527 25.94043,28.389648 C25.94043,28.389648 25.94043,25.75 25.94043,25.75 ZM30.501587,28.081543 C30.501587,28.081543 29.27353,28.081543 29.27353,28.081543 C29.27353,28.536621 29.264496,28.808594 29.246521,28.896484 C29.183685,29.219238 29.003662,29.379883 28.706818,29.379883 C28.292877,29.379883 28.086212,29.072266 28.086212,28.455078 C28.086212,28.455078 28.086212,27.290527 28.086212,27.290527 C28.086212,27.290527 30.501587,27.290527 30.501587,27.290527 C30.501587,27.290527 30.501587,25.911621 30.501587,25.911621 C30.501587,25.205566 30.38028,24.687012 30.137085,24.357422 C29.786682,23.902344 29.309692,23.674805 28.706818,23.674805 C28.09491,23.674805 27.613678,23.902344 27.262695,24.357422 C27.010803,24.687012 26.88504,25.205566 26.88504,25.911621 C26.88504,25.911621 26.88504,28.22754 26.88504,28.22754 C26.88504,28.934082 27.015625,29.451172 27.276306,29.781738 C27.627289,30.236816 28.112976,30.464355 28.733704,30.464355 C29.381348,30.464355 29.86737,30.228027 30.191223,29.754883 C30.353394,29.513672 30.447693,29.273438 30.474579,29.03125 C30.492554,28.951172 30.501587,28.692871 30.501587,28.254883 C30.501587,28.254883 30.501587,28.081543 30.501587,28.081543 ZM28.086212,25.67041 C28.086212,25.062988 28.288544,24.759277 28.69342,24.759277 C29.09787,24.759277 29.300537,25.062988 29.300537,25.67041 C29.300537,25.67041 29.300537,26.286621 29.300537,26.286621 C29.300537,26.286621 28.086212,26.286621 28.086212,26.286621 C28.086212,26.286621 28.086212,25.67041 28.086212,25.67041 ZM24.213074,29.379883 C24.006042,29.379883 23.803833,29.281738 23.605835,29.085938 C23.605835,29.085938 23.605835,25.054688 23.605835,25.054688 C23.803833,24.85791 24.006042,24.759277 24.213074,24.759277 C24.56372,24.759277 24.73938,25.058105 24.73938,25.657227 C24.73938,25.657227 24.73938,28.482422 24.73938,28.482422 C24.73938,29.081055 24.56372,29.379883 24.213074,29.379883 ZM26.817505,17.23291 C26.340881,17.785645 25.877502,18.062988 25.42752,18.062988 C25.013702,18.062988 24.748291,17.89746 24.631348,17.566895 C24.559357,17.353027 24.523315,17.018066 24.523315,16.562988 C24.523315,16.562988 24.523315,11.287109 24.523315,11.287109 C24.523315,11.287109 25.751282,11.287109 25.751282,11.287109 C25.751282,11.287109 25.751282,16.20166 25.751282,16.20166 C25.751282,16.495117 25.755737,16.651367 25.764893,16.67041 C25.791779,16.86621 25.886078,16.964844 26.048248,16.964844 C26.291443,16.964844 26.547668,16.773438 26.817505,16.389648 C26.817505,16.389648 26.817505,11.287109 26.817505,11.287109 C26.817505,11.287109 28.045593,11.287109 28.045593,11.287109 C28.045593,11.287109 28.045593,17.96875 28.045593,17.96875 C28.045593,17.96875 26.817505,17.96875 26.817505,17.96875 C26.817505,17.96875 26.817505,17.23291 26.817505,17.23291 ZM21.716644,18.062988 C21.113647,18.062988 20.64148,17.83545 20.299652,17.380371 C20.04776,17.041504 19.921875,16.51416 19.921875,15.798828 C19.921875,15.798828 19.921875,13.455566 19.921875,13.455566 C19.921875,12.741211 20.047882,12.219727 20.299652,11.888184 C20.641357,11.433105 21.113647,11.205566 21.716644,11.205566 C22.337372,11.205566 22.814148,11.433105 23.146942,11.888184 C23.398804,12.219727 23.52481,12.741211 23.52481,13.455566 C23.52481,13.455566 23.52481,15.798828 23.52481,15.798828 C23.52481,16.523438 23.398804,17.049805 23.146942,17.380371 C22.814148,17.83545 22.337372,18.062988 21.716644,18.062988 ZM22.296875,13.214844 C22.296875,12.597656 22.103577,12.291016 21.716644,12.291016 C21.329712,12.291016 21.136322,12.597656 21.136322,13.214844 C21.136322,13.214844 21.136322,16.027344 21.136322,16.027344 C21.136322,16.651367 21.329712,16.964844 21.716644,16.964844 C22.103577,16.964844 22.296875,16.652344 22.296875,16.027344 C22.296875,16.027344 22.296875,13.214844 22.296875,13.214844 ZM18.275879,17.96875 C18.275879,17.96875 16.926392,17.96875 16.926392,17.96875 C16.926392,17.96875 16.926392,14.339844 16.926392,14.339844 C16.800385,13.6796875 16.526062,12.732422 16.10321,11.500977 C15.770294,10.580566 15.477905,9.746094 15.226013,8.995605 C15.226013,8.995605 16.656433,8.995605 16.656433,8.995605 C16.656433,8.995605 17.614624,12.518555 17.614624,12.518555 C17.614624,12.518555 18.531982,8.995605 18.531982,8.995605 C18.531982,8.995605 19.908478,8.995605 19.908478,8.995605 C19.908478,8.995605 18.275879,14.339844 18.275879,14.339844 C18.275879,14.339844 18.275879,17.96875 18.275879,17.96875 Z"/>
</svg>