<svg xmlns="http://www.w3.org/2000/svg"
 xmlns:xlink="http://www.w3.org/1999/xlink"
 width="44px" height="44px"  viewBox="0 0 44 44">
<path fill-rule="evenodd"  fill="#707070"
 d="M22.499939,1.9956055 C33.821808,1.9956055 42.99997,11.173828 42.99997,22.496582 C42.99997,33.817383 33.821808,42.995117 22.499939,42.995117 C11.17807,42.995117 1.9999084,33.817383 1.9999084,22.496582 C1.9999084,11.173828 11.17807,1.9956055 22.499939,1.9956055 ZM29.76706,24.913086 C30.528992,25.71582 31.333069,26.470703 32.016388,27.354004 C32.3183,27.746582 32.604065,28.151855 32.82263,28.606934 C33.132416,29.255371 32.851807,29.967285 32.3136,30.00586 C32.3136,30.00586 28.96759,30.00586 28.96759,30.00586 C28.104584,30.083008 27.416107,29.707031 26.83725,29.0708 C26.373993,28.561523 25.944946,28.019531 25.49945,27.493164 C25.316895,27.277832 25.125671,27.075195 24.89737,26.915527 C24.440643,26.59668 24.044098,26.693848 23.78305,27.208008 C23.517212,27.730957 23.45691,28.310547 23.430817,28.89209 C23.394989,29.742188 23.15683,29.966309 22.365356,30.004883 C20.67392,30.09082 19.068787,29.814453 17.577515,28.894531 C16.262817,28.083008 15.243256,26.936035 14.355988,25.638672 C12.628174,23.11377 11.305115,20.339355 10.115967,17.485352 C9.848267,16.842285 10.044067,16.49707 10.701416,16.48584 C11.792969,16.463379 12.884399,16.463379 13.977295,16.483887 C14.420868,16.490234 14.714661,16.765625 14.885864,17.218262 C15.476471,18.783691 16.199066,20.274414 17.10611,21.656738 C17.347717,22.024414 17.593994,22.392578 17.944733,22.651855 C18.332825,22.937988 18.628174,22.842773 18.810822,22.376465 C18.926636,22.081055 18.977356,21.762207 19.003418,21.44629 C19.089966,20.355957 19.101288,19.268066 18.949646,18.182617 C18.856506,17.504883 18.502747,17.066406 17.876068,16.938965 C17.556213,16.873047 17.60382,16.74414 17.758667,16.546875 C18.027588,16.20752 18.28064,15.995605 18.784851,15.995605 C18.784851,15.995605 22.566315,15.995605 22.566315,15.995605 C23.161652,16.123535 23.293945,16.411133 23.375427,17.057617 C23.375427,17.057617 23.378632,21.589844 23.378632,21.589844 C23.3721,21.838867 23.494446,22.58252 23.91214,22.748047 C24.24643,22.865723 24.466858,22.577148 24.667358,22.348145 C25.572815,21.311523 26.218933,20.086914 26.796295,18.817871 C27.052399,18.259766 27.272705,17.680176 27.486267,17.101562 C27.64441,16.671387 27.89264,16.460938 28.341003,16.46875 C28.341003,16.46875 31.98059,16.473633 31.98059,16.473633 C32.0885,16.473633 32.197662,16.475586 32.302155,16.495117 C32.915436,16.606934 33.083557,16.89209 32.894043,17.537598 C32.59558,18.551758 32.014893,19.395996 31.447174,20.245117 C30.84018,21.151855 30.19107,22.026855 29.589233,22.937988 C29.036255,23.77002 29.0802,24.189941 29.76706,24.913086 C29.76706,24.913086 29.76706,24.913086 29.76706,24.913086 Z"/>
</svg>